<svg width="169" height="36" viewBox="0 0 169 36" fill="none" xmlns="http://www.w3.org/2000/svg">
<path d="M2.88068 35L0.119318 8.81818H7.46591L8.59091 26.4091H8.82955L15.9886 8.81818H23.1989L24.5625 26.3068H24.7841L31.7045 8.81818H39.0341L27.5625 35H19.875L18.1023 18.5341H17.7784L10.5511 35H2.88068ZM49.7514 35.5114C47.0696 35.5114 44.848 34.9659 43.0866 33.875C41.3253 32.7727 40.0866 31.2159 39.3707 29.2045C38.6662 27.1818 38.5469 24.7898 39.0128 22.0284C39.4673 19.3352 40.3821 16.9716 41.7571 14.9375C43.1435 12.9034 44.8821 11.3182 46.973 10.1818C49.0639 9.04545 51.3935 8.47727 53.9616 8.47727C55.6889 8.47727 57.2514 8.75568 58.6491 9.3125C60.0582 9.85795 61.2287 10.6875 62.1605 11.8011C63.0923 12.9034 63.7287 14.2841 64.0696 15.9432C64.4219 17.6023 64.4162 19.5455 64.0526 21.7727L63.7287 23.767H41.6378L42.3366 19.267H57.6094C57.7798 18.2216 57.7116 17.2955 57.4048 16.4886C57.098 15.6818 56.5866 15.0511 55.8707 14.5966C55.1548 14.1307 54.2741 13.8977 53.2287 13.8977C52.1605 13.8977 51.1605 14.1591 50.2287 14.6818C49.2969 15.2045 48.5128 15.892 47.8764 16.7443C47.2514 17.5852 46.848 18.5 46.6662 19.4886L45.8651 23.9545C45.6378 25.3295 45.6832 26.4716 46.0014 27.3807C46.331 28.2898 46.8991 28.9716 47.706 29.4261C48.5128 29.8693 49.5355 30.0909 50.7741 30.0909C51.581 30.0909 52.3366 29.9773 53.0412 29.75C53.7571 29.5227 54.3935 29.1875 54.9503 28.7443C55.5071 28.2898 55.9616 27.7273 56.3139 27.0568L62.9446 27.5C62.331 29.1136 61.3991 30.5227 60.1491 31.7273C58.8991 32.9205 57.3935 33.8523 55.6321 34.5227C53.8821 35.1818 51.9219 35.5114 49.7514 35.5114Z" fill="#F2F2F2"/>
<path d="M68.9403 35V0.0909081H82.7131C85.3494 0.0909081 87.5994 0.562499 89.4631 1.50568C91.3381 2.4375 92.7642 3.76136 93.7415 5.47727C94.7301 7.18182 95.2244 9.1875 95.2244 11.4943C95.2244 13.8125 94.7244 15.8068 93.7244 17.4773C92.7244 19.1364 91.2756 20.4091 89.3778 21.2955C87.4915 22.1818 85.2074 22.625 82.5256 22.625H73.304V16.6932H81.3324C82.7415 16.6932 83.9119 16.5 84.8438 16.1136C85.7756 15.7273 86.4688 15.1477 86.9233 14.375C87.3892 13.6023 87.6222 12.642 87.6222 11.4943C87.6222 10.3352 87.3892 9.35795 86.9233 8.5625C86.4688 7.76704 85.7699 7.16477 84.8267 6.75568C83.8949 6.33523 82.7188 6.125 81.2983 6.125H76.321V35H68.9403ZM87.7926 19.1136L96.4688 35H88.321L79.8324 19.1136H87.7926ZM110.374 35.5114C107.681 35.5114 105.363 34.9659 103.419 33.875C101.488 32.7727 99.9989 31.2159 98.9535 29.2045C97.908 27.1818 97.3853 24.7898 97.3853 22.0284C97.3853 19.3352 97.908 16.9716 98.9535 14.9375C99.9989 12.9034 101.471 11.3182 103.368 10.1818C105.277 9.04545 107.516 8.47727 110.084 8.47727C111.811 8.47727 113.419 8.75568 114.908 9.3125C116.408 9.85795 117.715 10.6818 118.828 11.7841C119.953 12.8864 120.828 14.2727 121.453 15.9432C122.078 17.6023 122.391 19.5455 122.391 21.7727V23.767H100.283V19.267H115.556C115.556 18.2216 115.328 17.2955 114.874 16.4886C114.419 15.6818 113.789 15.0511 112.982 14.5966C112.186 14.1307 111.26 13.8977 110.203 13.8977C109.101 13.8977 108.124 14.1534 107.272 14.6648C106.431 15.1648 105.772 15.8409 105.294 16.6932C104.817 17.5341 104.573 18.4716 104.561 19.5057V23.7841C104.561 25.0795 104.8 26.1989 105.277 27.142C105.766 28.0852 106.453 28.8125 107.34 29.3239C108.226 29.8352 109.277 30.0909 110.493 30.0909C111.3 30.0909 112.039 29.9773 112.709 29.75C113.38 29.5227 113.953 29.1818 114.431 28.7273C114.908 28.2727 115.272 27.7159 115.522 27.0568L122.238 27.5C121.897 29.1136 121.198 30.5227 120.141 31.7273C119.096 32.9205 117.743 33.8523 116.084 34.5227C114.436 35.1818 112.533 35.5114 110.374 35.5114ZM132.951 19.8636V35H125.69V8.81818H132.61V13.4375H132.917C133.496 11.9148 134.468 10.7102 135.832 9.82386C137.195 8.92614 138.849 8.47727 140.792 8.47727C142.61 8.47727 144.195 8.875 145.548 9.67045C146.9 10.4659 147.951 11.6023 148.701 13.0795C149.451 14.5455 149.826 16.2955 149.826 18.3295V35H142.565V19.625C142.576 18.0227 142.167 16.7727 141.337 15.875C140.508 14.9659 139.366 14.5114 137.911 14.5114C136.934 14.5114 136.07 14.7216 135.32 15.142C134.582 15.5625 134.002 16.1761 133.582 16.983C133.173 17.7784 132.962 18.7386 132.951 19.8636ZM168.035 8.81818V14.2727H152.268V8.81818H168.035ZM155.848 2.54545H163.109V26.9545C163.109 27.625 163.211 28.1477 163.416 28.5227C163.62 28.8864 163.904 29.142 164.268 29.2898C164.643 29.4375 165.075 29.5114 165.564 29.5114C165.904 29.5114 166.245 29.483 166.586 29.4261C166.927 29.358 167.189 29.3068 167.37 29.2727L168.512 34.6761C168.149 34.7898 167.637 34.9205 166.978 35.0682C166.319 35.2273 165.518 35.3239 164.575 35.358C162.825 35.4261 161.291 35.1932 159.973 34.6591C158.666 34.125 157.649 33.2955 156.921 32.1705C156.194 31.0455 155.836 29.625 155.848 27.9091V2.54545Z" fill="#21C55E"/>
</svg>
